<svg width="263" height="263" viewBox="0 0 263 263" fill="none" xmlns="http://www.w3.org/2000/svg">
<circle cx="131.5" cy="131.5" r="131.5" fill="white"/>
<path d="M92.1582 115.042L130.998 76.203L169.858 115.062L192.458 92.462L130.998 31L69.5593 92.442L92.1582 115.042ZM31 130.997L53.6006 108.396L76.1998 130.996L53.5993 153.596L31 130.997ZM92.1582 146.958L130.998 185.797L169.857 146.939L192.469 169.527L192.458 169.539L130.998 231L69.5253 169.528L92.1582 146.958ZM185.8 131.009L208.401 108.409L231 131.008L208.399 153.609L185.8 131.009Z" fill="#F3BA2F"/>
<path d="M153.921 130.988H153.931L130.998 108.055L114.05 125.003H114.049L108.086 130.968L108.054 130.999L108.086 131.032L130.998 153.945L153.931 131.012L153.942 130.999L153.921 130.988Z" fill="#F3BA2F"/>
</svg>
