<svg width="24" height="24" viewBox="0 0 24 24" fill="none" xmlns="http://www.w3.org/2000/svg">
<circle cx="12" cy="12" r="12" fill="url(#paint0_linear_1835_4242)"/>
<path d="M10.0728 19.9592C10.8402 19.8463 11.5366 19.5076 12.1264 18.9498C12.6948 18.4194 13.043 17.8856 13.2811 17.1841C13.544 16.4142 13.6079 15.8941 13.6079 14.5082V13.4372H13.9419C14.7378 13.4372 16.031 13.2935 16.699 13.1292C17.3989 12.9581 17.7222 12.835 18.0739 12.6057C19.7438 11.5244 20.3478 9.94349 19.8078 8.08201C19.7296 7.81168 19.6976 7.78773 19.6479 7.96566C19.5626 8.301 19.3104 8.9272 19.1221 9.2865C18.5181 10.4397 17.676 11.1788 16.5249 11.562C15.825 11.7947 15.3275 11.87 14.116 11.9145L13.544 11.9384L13.5191 11.7468C13.5049 11.6407 13.5014 11.1275 13.512 10.6073C13.5262 9.80662 13.5404 9.60473 13.6044 9.33098C13.8673 8.18808 14.4216 7.48318 15.292 7.18206C15.4945 7.11362 15.6331 7.09309 15.9813 7.07941C16.2229 7.07256 16.4076 7.05203 16.3899 7.03492C16.3188 6.96648 15.8214 6.89805 15.2565 6.87752C14.418 6.85014 14.0059 6.91173 13.3237 7.16495C12.8796 7.3292 12.6202 7.49687 12.5101 7.69192C12.3857 7.91434 12.201 8.42761 12.1513 8.68083C12.1299 8.80402 12.0873 8.99564 12.0589 9.10856C11.9843 9.43021 11.9345 10.4739 11.9594 11.2506L11.9843 11.9555L11.3661 11.9761C8.47755 12.0856 6.63714 12.876 5.94788 14.3063C5.6672 14.8949 5.6068 15.196 5.6068 16.0207C5.6068 16.4861 5.62101 16.7564 5.66365 16.972C5.75247 17.4237 5.93722 17.8445 6.23567 18.2791C6.41331 18.5358 6.73307 18.8745 6.76505 18.8403C6.77215 18.8335 6.74728 18.7103 6.7082 18.57C6.61938 18.2449 6.57674 17.1225 6.6407 16.7222C6.69044 16.4108 6.80058 16.0515 6.91427 15.8051C6.96046 15.7059 6.99954 15.6101 6.99954 15.593C6.99954 15.5074 7.45786 14.9223 7.71012 14.693C8.31412 14.1353 9.06378 13.7931 10.0728 13.6117C10.421 13.5501 11.9949 13.444 12.0305 13.4817C12.0731 13.5227 12.1228 14.5185 12.1051 14.9599C12.0802 15.5382 11.9452 16.3663 11.8315 16.6537C11.6467 17.1054 11.4655 17.3826 11.1564 17.6803C10.6804 18.1388 10.2114 18.3407 9.61093 18.3441C9.20589 18.3441 8.98206 18.2928 8.58058 18.108C8.22885 17.9438 7.83803 17.629 7.66038 17.3689C7.60353 17.2868 7.52892 17.1773 7.49339 17.1294C7.39036 16.9822 7.24824 16.5408 7.21982 16.2739L7.1914 16.0207L7.11679 16.1576C7.0777 16.2328 6.98888 16.4416 6.92493 16.6195C6.80768 16.9377 6.80413 16.9549 6.80768 17.4921C6.80768 18.0362 6.80768 18.043 6.93914 18.3749C7.1985 19.0593 7.67104 19.5657 8.23595 19.7676C8.83995 19.9866 9.4546 20.0516 10.0728 19.9592ZM5.1165 16.7769C4.97083 15.5998 5.26217 14.4569 5.9763 13.4098C6.4595 12.7015 7.54313 11.9658 8.63388 11.6065C9.00693 11.4799 9.93069 11.2267 10.6661 11.0419L11.1174 10.929L11.1564 10.7545C11.4584 9.36862 11.6965 8.47894 11.867 8.11622C11.8848 8.07858 11.931 7.97251 11.9701 7.8767C12.2117 7.27787 12.7801 6.52507 13.3095 6.1076C13.949 5.60459 14.8373 5.20765 15.6367 5.07078C16.0701 4.9955 16.7345 4.97155 17.104 5.01603C17.2781 5.03656 17.4309 5.04683 17.438 5.03656C17.4593 5.01945 17.1431 4.73886 16.9548 4.60883C16.5426 4.32482 15.9493 4.09898 15.4235 4.02369C14.8266 3.94157 13.949 4.07844 13.3415 4.34877C12.7268 4.62252 12.0091 5.17001 11.565 5.70382C11.0534 6.31975 10.6271 7.17179 10.4068 8.01357C10.3428 8.24968 9.98398 9.77582 9.98398 9.79977C9.98398 9.84084 9.57895 9.98113 8.9643 10.1522C7.84513 10.4568 7.131 10.7442 6.25698 11.2404C5.85906 11.4628 5.62457 11.6407 5.23019 12.0137C4.72923 12.4825 4.28512 13.1532 4.13945 13.6596C4.10748 13.7725 4.06129 13.9265 4.03997 14.0018C3.98668 14.1797 3.98668 15.0215 4.03997 15.1994C4.06129 15.2747 4.10748 15.4356 4.13945 15.5587C4.21051 15.8291 4.48764 16.3971 4.67239 16.6537C4.82161 16.859 5.12005 17.1739 5.14492 17.1499C5.15203 17.1431 5.14137 16.9754 5.1165 16.7769ZM19.5306 7.52767C19.4809 7.2505 18.9622 6.64483 18.4257 6.24447C17.6725 5.68329 16.9228 5.42665 16.0417 5.42665C15.4164 5.42665 14.9652 5.52931 14.4216 5.79279C14.116 5.93651 13.6328 6.26501 13.4694 6.4361C13.3699 6.53533 13.3806 6.53875 13.647 6.48743C14.1586 6.39161 14.5317 6.35055 15.1002 6.33002C16.429 6.28554 17.2994 6.45321 18.3369 6.9528C18.6957 7.12731 19.4347 7.57899 19.4347 7.6269C19.4347 7.64059 19.4596 7.65428 19.4916 7.65428C19.5413 7.65428 19.5449 7.63032 19.5306 7.52767Z" fill="white"/>
<defs>
<linearGradient id="paint0_linear_1835_4242" x1="0" y1="0" x2="27.0555" y2="4.16857" gradientUnits="userSpaceOnUse">
<stop stop-color="#38C3CF"/>
<stop offset="1" stop-color="#8767D3"/>
</linearGradient>
</defs>
</svg>
