<svg width="20" height="20" viewBox="0 0 20 20" fill="none" xmlns="http://www.w3.org/2000/svg">
<circle cx="10" cy="10" r="10" fill="white"/>
<path d="M5.45508 5.7618C7.5818 5.55693 9.56527 5.4545 11.4055 5.4545C12.4854 5.4545 13.2788 5.69009 13.7857 6.16128C14.2925 6.63248 14.546 7.36999 14.546 8.37383V9.06525C14.546 9.8335 14.3807 10.4174 14.0501 10.8169C13.7195 11.2266 13.141 11.5646 12.3146 11.8309L10.6617 12.3687V13.137H7.68648V10.9859L11.5708 9.67985V8.37383C11.5708 8.13824 11.4936 7.95386 11.3394 7.8207C11.1961 7.67729 10.9427 7.60559 10.579 7.60559C9.91789 7.60559 9.05838 7.63632 8.00053 7.69778C6.9537 7.75924 6.10522 7.80533 5.45508 7.83606V5.7618ZM7.68648 14.0589H10.6617V16.3636H7.68648V14.0589Z" fill="#100D40"/>
</svg>
