<svg width="149" height="56" viewBox="0 0 149 56" fill="none" xmlns="http://www.w3.org/2000/svg">
<path d="M78.384 29.6947C78.6284 30.3465 78.7913 30.9982 78.7913 31.65C78.7913 32.3833 78.6284 33.035 78.384 33.6053C78.1397 34.2571 77.7324 34.8274 77.2437 35.3162C76.7551 35.805 76.1849 36.1309 75.5333 36.4568C74.8817 36.7012 74.2302 36.8642 73.5786 36.8642H66.4111V33.5239H73.5786C74.0673 33.5239 74.4745 33.3609 74.8003 32.9536C75.1261 32.5462 75.289 32.1388 75.289 31.65C75.289 31.1612 75.1261 30.7538 74.8003 30.4279C74.4745 30.0206 74.0673 29.8576 73.5786 29.8576H66.4111V19.5923H73.1713C73.9044 19.5923 74.556 19.7552 75.2075 19.9996C75.8591 20.2441 76.4293 20.6514 76.9179 21.1402C77.4066 21.6291 77.7324 22.1994 78.0582 22.7697C78.3026 23.4214 78.4655 24.0732 78.4655 24.8064C78.4655 26.0285 78.0582 27.0876 77.3252 28.0653C77.7324 28.4726 78.1397 29.0429 78.384 29.6947ZM74.4745 26.0285C74.8003 25.7026 74.9632 25.2953 74.9632 24.8064C74.9632 24.3176 74.8003 23.9103 74.4745 23.5029C74.0673 23.0955 73.66 22.9326 73.1713 22.9326H69.9134V26.5988H73.1713C73.66 26.5988 74.0673 26.4359 74.4745 26.0285Z" fill="white"/>
<path d="M80.9902 19.5923H84.4111V36.8642H80.9902V19.5923Z" fill="white"/>
<path d="M98.2584 25.3767H94.919V24.3991C94.919 24.3176 94.919 24.2361 94.919 24.2361C94.8376 23.8288 94.7561 23.5844 94.4303 23.2585C94.1045 23.0955 93.7788 23.0141 93.453 23.0141H91.9869C91.5797 23.0141 91.2539 23.0955 91.0095 23.34C90.9281 23.4214 90.8466 23.4214 90.8466 23.5029C90.4394 23.6658 90.3579 24.0732 90.3579 24.4806V31.8944C90.3579 32.3833 90.5208 32.7091 90.8466 33.035C90.9281 33.1165 90.9281 33.1165 91.0095 33.198C91.2539 33.3609 91.5797 33.5239 91.9869 33.5239H93.2901C93.6973 33.5239 94.0231 33.4424 94.2674 33.2794C94.3489 33.2794 94.3489 33.198 94.3489 33.198C94.5932 32.9536 94.6747 32.6277 94.7561 32.3018C94.7561 32.2203 94.7561 32.2203 94.7561 32.1388V30.5094H93.6159V27.2506H98.2584V32.0574C98.2584 32.2203 98.2584 32.4647 98.177 32.7091C98.0955 33.1165 98.0141 33.5239 97.7697 33.9312C97.5254 34.583 97.1181 35.0718 96.7109 35.5606C96.6294 35.6421 96.6294 35.6421 96.548 35.7236C96.1408 36.0495 95.7335 36.2939 95.2448 36.5383C94.6747 36.7827 94.0231 36.9456 93.3715 36.9456H91.9054C91.2539 36.9456 90.6023 36.7827 90.0321 36.5383C89.462 36.2939 88.8919 35.8865 88.4032 35.4792C87.9145 35.0718 87.5887 34.5015 87.2629 33.9312C87.2629 33.8497 87.1815 33.7683 87.1815 33.7683V33.4424C87.1815 33.3609 87.1 33.2794 87.1 33.198C87.1 33.198 87.1 33.198 87.1 33.1165C87.1 33.035 87.0186 32.9536 87.0186 32.8721V32.7906C87.0186 32.7091 87.0186 32.7091 87.0186 32.6277V32.4647C87.0186 32.3833 87.0186 32.3833 87.0186 32.3018C87.0186 32.2203 87.0186 32.2203 87.0186 32.1388V24.4806C87.0186 24.2361 87.0186 23.9103 87.1 23.6658C87.1815 23.2585 87.2629 22.9326 87.4258 22.6067C87.5887 22.0364 87.9959 21.4661 88.4846 21.0588C88.9733 20.5699 89.462 20.2441 90.1136 19.9996C90.6837 19.7552 91.2539 19.5923 91.9869 19.5923H93.453C94.1045 19.5923 94.7561 19.7552 95.3263 19.9996C95.815 20.1626 96.2222 20.4885 96.6294 20.8144C96.7109 20.8958 96.7923 20.8958 96.7923 20.9773C97.281 21.3847 97.6068 21.9549 97.8512 22.6067C98.0141 23.0141 98.177 23.4214 98.2584 23.8288C98.2584 23.9917 98.3399 24.2361 98.3399 24.4806V25.3767H98.2584Z" fill="white"/>
<path d="M108.031 19.5923H111.208V36.8642H107.868C107.868 36.8642 107.624 36.3753 107.135 35.3977C106.728 34.42 106.239 33.2794 105.669 32.0574C105.099 30.8353 104.448 29.2059 103.633 27.2506V36.9456H100.538V19.5923H103.877C103.877 19.5923 104.122 20.0811 104.61 21.0588C105.018 22.0364 105.506 23.177 106.077 24.3991C106.647 25.6211 107.298 27.2506 108.113 29.2059V19.5923H108.031Z" fill="white"/>
<path d="M114.628 19.5923H123.669V22.7697H114.628V19.5923ZM123.669 26.4359V29.6947H118.131V36.7827H114.628V26.4359H123.669Z" fill="white"/>
<path d="M126.112 19.5923H137.271V22.7697H133.361V36.7827H129.94V22.7697H126.112V19.5923Z" fill="white"/>
<path d="M145.579 25.3767V24.3991C145.579 23.9103 145.416 23.5844 145.09 23.2585C144.846 23.0955 144.52 23.0141 144.113 23.0141H142.81C142.484 23.0955 142.24 23.177 141.995 23.34C141.67 23.5844 141.507 23.9917 141.507 24.4806C141.507 25.0509 141.67 25.4582 141.914 25.7026C142.24 26.0285 142.81 26.2729 143.543 26.5988L145.742 27.4135C146.312 27.6579 146.801 27.9838 147.208 28.3097C147.697 28.7171 148.104 29.2059 148.43 29.8576C148.756 30.4279 149 31.1612 149 31.8944C149 33.3609 148.511 34.583 147.452 35.5606C146.964 35.968 146.475 36.3753 145.824 36.6198C145.172 36.8642 144.52 36.9456 143.787 36.9456H142.973C142.321 36.9456 141.67 36.7827 141.1 36.5383C140.611 36.3753 140.204 36.0495 139.796 35.7236C139.715 35.6421 139.715 35.6421 139.633 35.5606C139.145 35.0718 138.819 34.583 138.493 33.9312C138.33 33.5239 138.167 33.1165 138.086 32.7091C138.086 32.4647 138.086 32.3018 138.086 32.0574V31.0797H141.507V32.0574C141.507 32.4647 141.67 32.8721 141.995 33.198L142.077 33.2794C142.403 33.4424 142.728 33.5239 143.054 33.5239H144.357C144.683 33.4424 144.928 33.3609 145.172 33.198C145.498 32.9536 145.661 32.6277 145.661 32.0574C145.661 31.4871 145.498 31.0797 145.253 30.8353C144.928 30.5094 144.357 30.265 143.624 29.9391L141.425 29.1244C140.855 28.88 140.366 28.5541 139.959 28.2282C139.471 27.8209 139.063 27.332 138.738 26.6803C138.249 26.0285 138.086 25.3767 138.086 24.6435C138.086 23.177 138.575 21.9549 139.633 20.9773C140.122 20.4885 140.611 20.1626 141.262 19.9182C141.914 19.6738 142.566 19.5923 143.299 19.5923H144.032C144.683 19.5923 145.335 19.7552 145.905 19.9996C146.394 20.1626 146.801 20.4885 147.208 20.8144C147.29 20.8958 147.29 20.8958 147.371 20.9773C147.86 21.3847 148.186 21.9549 148.511 22.5252C148.674 22.9326 148.837 23.34 148.919 23.8288C148.919 23.9917 149 24.2361 149 24.4806V25.4582H145.579V25.3767Z" fill="white"/>
<path d="M1.10467 20.5645C0.94838 20.9895 0.781481 21.4542 0.614583 21.9188C-2.44949 36.2088 6.21745 50.5868 20.5104 54.4177C34.645 58.2061 49.2055 50.2659 53.8399 36.609C54.0386 36.0255 54.2373 35.4421 54.3964 34.848C54.5556 34.254 54.6751 33.6493 54.7947 33.0446C54.5959 33.6281 54.3972 34.2115 54.1589 34.7844C49.2065 47.2524 35.8614 54.4572 22.5971 51.5387C22.1906 51.4722 21.755 51.3555 21.3591 51.2493C8.37271 47.7687 0.634017 34.3611 4.11372 21.371C7.59341 8.38094 20.9972 0.640066 33.9836 4.12075C20.245 0.438442 6.24234 7.72169 1.10467 20.5645Z" fill="url(#paint0_linear_292_60)"/>
<path d="M1.35736 19.1463C1.19047 19.6109 1.07377 20.0466 0.946463 20.5218C0.819157 20.9971 0.702459 21.4327 0.614746 21.9186C0.781645 21.454 0.937935 21.0289 1.10483 20.5643C6.2425 7.72146 20.2451 0.43822 33.9442 4.10991C34.3401 4.21603 34.7757 4.33276 35.161 4.47848C47.4629 8.45487 54.6028 21.4048 51.2292 33.9989C47.8556 46.5929 35.1991 54.2369 22.5973 51.5385C35.8616 54.4569 49.2067 47.2521 54.1591 34.7841C54.3974 34.2113 54.5961 33.6279 54.7948 33.0444C57.6079 18.8994 48.9671 4.74064 34.8325 0.952214C20.5395 -2.87865 5.84678 5.23835 1.35736 19.1463Z" fill="url(#paint1_linear_292_60)"/>
<path d="M41.2132 13.1695C34.9773 7.09979 26.9745 9.53182 24.7919 12.1301C37.0975 6.80878 39.4464 14.6592 39.1346 19.4054C38.996 20.3755 38.1992 23.0847 36.1205 25.3296C34.0419 27.5745 29.8499 27.7893 28.0138 27.6161C28.2915 28.5147 28.4267 29.3878 28.4546 30.2213C28.6306 35.4804 22.4294 41.5844 18.5024 38.0818C18.3406 37.9375 18.1848 37.7752 18.0362 37.5937C15.7913 34.8498 16.893 31.6695 17.7244 30.4223C14.9806 33.1661 14.745 37.0047 15.0222 38.7369C16.4271 44.2631 22.9385 47.7725 27.9925 45.1325C28.8847 44.6664 29.8254 44.0102 30.82 43.1021C34.6447 39.61 34.423 34.926 33.834 33.0206C37.7419 33.9352 41.4904 30.838 42.8762 29.1751C44.9202 26.3689 47.4492 19.2391 41.2132 13.1695Z" fill="url(#paint2_linear_292_60)"/>
<path d="M36.5361 18.262C39.0305 20.7564 37.1597 24.0823 37.1597 24.0823C38.8226 22.4193 41.2131 16.2873 36.4322 11.7143C34.5991 9.96088 32.3904 9.55396 30.3393 9.77724C26.4667 10.1988 23.5385 13.2171 20.8252 16.0139L20.8092 16.0304L16.1573 20.8254C12.9857 24.0946 9.46715 27.6336 9.23015 32.1823C8.8725 39.0465 15.2141 43.5868 19.2833 45.2845C13.0473 40.3789 14.9181 33.8519 17.3086 30.8379L28.0076 20.1389C29.4657 18.6807 30.9869 16.9904 33.044 16.8471C34.1074 16.773 35.346 17.0719 36.5361 18.262Z" fill="url(#paint3_linear_292_60)"/>
<defs>
<linearGradient id="paint0_linear_292_60" x1="0.561534" y1="22.1168" x2="54.1223" y2="36.4643" gradientUnits="userSpaceOnUse">
<stop stop-color="#9D00E1"/>
<stop offset="0.567708" stop-color="#1D42B9"/>
<stop offset="1" stop-color="#3DE3FF"/>
</linearGradient>
<linearGradient id="paint1_linear_292_60" x1="1.34227" y1="19.0442" x2="54.7993" y2="33.3639" gradientUnits="userSpaceOnUse">
<stop stop-color="#D15AFF"/>
<stop offset="1" stop-color="#0E4DA4"/>
</linearGradient>
<linearGradient id="paint2_linear_292_60" x1="41.686" y1="13.6401" x2="14.2961" y2="41.03" gradientUnits="userSpaceOnUse">
<stop stop-color="#D15AFF"/>
<stop offset="1" stop-color="#0E4DA4"/>
</linearGradient>
<linearGradient id="paint3_linear_292_60" x1="37.6813" y1="12.9596" x2="11.2023" y2="39.4385" gradientUnits="userSpaceOnUse">
<stop stop-color="#9D00E1"/>
<stop offset="0.567708" stop-color="#1D42B9"/>
<stop offset="1" stop-color="#3DE3FF"/>
</linearGradient>
</defs>
</svg>
