<svg width="25" height="25" viewBox="20 20 30 30" fill="none" xmlns="http://www.w3.org/2000/svg">
<g filter="url(#filter0_d_339_214)">
<path d="M36.3479 34.8574H33.1794L33.4547 30.003C33.4804 29.5501 32.8855 29.3684 32.659 29.7584L28.5324 36.8679C28.3649 37.1565 28.571 37.5209 28.9011 37.5209H32.0696L31.7943 42.3753C31.7686 42.8282 32.3628 43.0112 32.59 42.6198L36.7166 35.5104C36.8842 35.2217 36.6781 34.8574 36.3479 34.8574Z" fill="#0A0D38" fill-opacity="0.8"/>
<path d="M36.3479 34.8574H33.1794L33.4547 30.003C33.4804 29.5501 32.8855 29.3684 32.659 29.7584L28.5324 36.8679C28.3649 37.1565 28.571 37.5209 28.9011 37.5209H32.0696L31.7943 42.3753C31.7686 42.8282 32.3628 43.0112 32.59 42.6198L36.7166 35.5104C36.8842 35.2217 36.6781 34.8574 36.3479 34.8574Z" fill="url(#paint0_linear_339_214)"/>
<path d="M36.3479 34.8574H33.1794L33.4547 30.003C33.4804 29.5501 32.8855 29.3684 32.659 29.7584L28.5324 36.8679C28.3649 37.1565 28.571 37.5209 28.9011 37.5209H32.0696L31.7943 42.3753C31.7686 42.8282 32.3628 43.0112 32.59 42.6198L36.7166 35.5104C36.8842 35.2217 36.6781 34.8574 36.3479 34.8574Z" fill="url(#paint1_linear_339_214)"/>
</g>
<g filter="url(#filter1_d_339_214)">
<path d="M41.1946 28.463L42.7999 26.628L40.9654 25.0223L39.3601 26.7421C37.8534 25.6192 36.0233 24.844 34.0339 24.5705L33.973 24.5638V23.5317H38.4988V21.2383H27.0392V23.5317H31.565V24.6779C25.621 25.2205 21 30.1817 21 36.2238C21 42.6257 26.1879 47.815 32.588 47.815C38.9881 47.815 44.176 42.6257 44.176 36.2238C44.176 33.2338 43.0445 30.5073 41.1857 28.452L41.1946 28.4619V28.463ZM32.712 44.8593C27.8374 44.8593 23.8862 40.907 23.8862 36.0311C23.8862 31.1551 27.8374 27.2028 32.712 27.2028C35.1753 27.2227 37.3995 28.2271 39.0169 29.8406C40.6444 31.4431 41.6529 33.6712 41.6529 36.1341V36.1473V36.1462C41.4614 40.9602 37.5445 44.7973 32.7186 44.8605H32.712V44.8593Z" fill="#0A0D38" fill-opacity="0.8"/>
<path d="M41.1946 28.463L42.7999 26.628L40.9654 25.0223L39.3601 26.7421C37.8534 25.6192 36.0233 24.844 34.0339 24.5705L33.973 24.5638V23.5317H38.4988V21.2383H27.0392V23.5317H31.565V24.6779C25.621 25.2205 21 30.1817 21 36.2238C21 42.6257 26.1879 47.815 32.588 47.815C38.9881 47.815 44.176 42.6257 44.176 36.2238C44.176 33.2338 43.0445 30.5073 41.1857 28.452L41.1946 28.4619V28.463ZM32.712 44.8593C27.8374 44.8593 23.8862 40.907 23.8862 36.0311C23.8862 31.1551 27.8374 27.2028 32.712 27.2028C35.1753 27.2227 37.3995 28.2271 39.0169 29.8406C40.6444 31.4431 41.6529 33.6712 41.6529 36.1341V36.1473V36.1462C41.4614 40.9602 37.5445 44.7973 32.7186 44.8605H32.712V44.8593Z" fill="url(#paint2_linear_339_214)"/>
<path d="M41.1946 28.463L42.7999 26.628L40.9654 25.0223L39.3601 26.7421C37.8534 25.6192 36.0233 24.844 34.0339 24.5705L33.973 24.5638V23.5317H38.4988V21.2383H27.0392V23.5317H31.565V24.6779C25.621 25.2205 21 30.1817 21 36.2238C21 42.6257 26.1879 47.815 32.588 47.815C38.9881 47.815 44.176 42.6257 44.176 36.2238C44.176 33.2338 43.0445 30.5073 41.1857 28.452L41.1946 28.4619V28.463ZM32.712 44.8593C27.8374 44.8593 23.8862 40.907 23.8862 36.0311C23.8862 31.1551 27.8374 27.2028 32.712 27.2028C35.1753 27.2227 37.3995 28.2271 39.0169 29.8406C40.6444 31.4431 41.6529 33.6712 41.6529 36.1341V36.1473V36.1462C41.4614 40.9602 37.5445 44.7973 32.7186 44.8605H32.712V44.8593Z" fill="url(#paint3_linear_339_214)"/>
</g>
<defs>
<filter id="filter0_d_339_214" x="7.4729" y="8.54498" width="54.3032" height="59.2889" filterUnits="userSpaceOnUse" color-interpolation-filters="sRGB">
<feFlood flood-opacity="0" result="BackgroundImageFix"/>
<feColorMatrix in="SourceAlpha" type="matrix" values="0 0 0 0 0 0 0 0 0 0 0 0 0 0 0 0 0 0 127 0" result="hardAlpha"/>
<feOffset dx="2" dy="2"/>
<feGaussianBlur stdDeviation="11.5"/>
<feComposite in2="hardAlpha" operator="out"/>
<feColorMatrix type="matrix" values="0 0 0 0 0 0 0 0 0 0 0 0 0 0 0 0 0 0 0.3 0"/>
<feBlend mode="normal" in2="BackgroundImageFix" result="effect1_dropShadow_339_214"/>
<feBlend mode="normal" in="SourceGraphic" in2="effect1_dropShadow_339_214" result="shape"/>
</filter>
<filter id="filter1_d_339_214" x="0" y="0.238281" width="69.176" height="72.5768" filterUnits="userSpaceOnUse" color-interpolation-filters="sRGB">
<feFlood flood-opacity="0" result="BackgroundImageFix"/>
<feColorMatrix in="SourceAlpha" type="matrix" values="0 0 0 0 0 0 0 0 0 0 0 0 0 0 0 0 0 0 127 0" result="hardAlpha"/>
<feOffset dx="2" dy="2"/>
<feGaussianBlur stdDeviation="11.5"/>
<feComposite in2="hardAlpha" operator="out"/>
<feColorMatrix type="matrix" values="0 0 0 0 0 0 0 0 0 0 0 0 0 0 0 0 0 0 0.3 0"/>
<feBlend mode="normal" in2="BackgroundImageFix" result="effect1_dropShadow_339_214"/>
<feBlend mode="normal" in="SourceGraphic" in2="effect1_dropShadow_339_214" result="shape"/>
</filter>
<linearGradient id="paint0_linear_339_214" x1="28.4729" y1="36.1894" x2="36.7761" y2="36.2054" gradientUnits="userSpaceOnUse">
<stop stop-color="#003E9B"/>
<stop offset="1" stop-color="#AD53CC"/>
</linearGradient>
<linearGradient id="paint1_linear_339_214" x1="28.4729" y1="36.3308" x2="36.7955" y2="36.3308" gradientUnits="userSpaceOnUse">
<stop stop-color="#7100DC"/>
<stop offset="1" stop-color="#FF6A57"/>
</linearGradient>
<linearGradient id="paint2_linear_339_214" x1="21" y1="34.5267" x2="44.1758" y2="34.5887" gradientUnits="userSpaceOnUse">
<stop stop-color="#003E9B"/>
<stop offset="1" stop-color="#AD53CC"/>
</linearGradient>
<linearGradient id="paint3_linear_339_214" x1="21" y1="34.8094" x2="44.2301" y2="34.8094" gradientUnits="userSpaceOnUse">
<stop stop-color="#7100DC"/>
<stop offset="1" stop-color="#FF6A57"/>
</linearGradient>
</defs>
</svg>
